<?xml version="1.0" encoding="UTF-8" standalone="no"?>
<svg
   xmlns:dc="http://purl.org/dc/elements/1.1/"
   xmlns:cc="http://creativecommons.org/ns#"
   xmlns:rdf="http://www.w3.org/1999/02/22-rdf-syntax-ns#"
   xmlns:svg="http://www.w3.org/2000/svg"
   xmlns="http://www.w3.org/2000/svg"
   xmlns:sodipodi="http://sodipodi.sourceforge.net/DTD/sodipodi-0.dtd"
   xmlns:inkscape="http://www.inkscape.org/namespaces/inkscape"
   inkscape:version="1.0 (4035a4fb49, 2020-05-01)"
   sodipodi:docname="sport_playground.svg"
   id="svg861"
   version="1.1"
   width="580"
   viewBox="0 0 580 580"
   height="580"
   enable-background="new 0 0 580 580">
  <metadata
     id="metadata867">
    <rdf:RDF>
      <cc:Work
         rdf:about="">
        <dc:format>image/svg+xml</dc:format>
        <dc:type
           rdf:resource="http://purl.org/dc/dcmitype/StillImage" />
      </cc:Work>
    </rdf:RDF>
  </metadata>
  <defs
     id="defs865" />
  <sodipodi:namedview
     inkscape:current-layer="svg861"
     inkscape:window-maximized="1"
     inkscape:window-y="-8"
     inkscape:window-x="-8"
     inkscape:cy="290"
     inkscape:cx="290"
     inkscape:zoom="0.64482759"
     showgrid="false"
     id="namedview863"
     inkscape:window-height="1017"
     inkscape:window-width="1920"
     inkscape:pageshadow="2"
     inkscape:pageopacity="0"
     guidetolerance="10"
     gridtolerance="10"
     objecttolerance="10"
     borderopacity="1"
     bordercolor="#666666"
     pagecolor="#ffffff" />
  <circle
     style="fill:#800080"
     id="circle851"
     stroke-width="param(outline-width)"
     stroke="param(outline)"
     r="57.534"
     fill="param(fill)"
     cy="285.783"
     cx="98.928" />
  <path
     style="fill:#800080"
     id="path853"
     stroke-width="param(outline-width)"
     stroke-opacity="param(outline-opacity)"
     stroke="param(outline)"
     fill-opacity="param(fill-opacity)"
     fill="param(fill)"
     d="m429.705 443.527c-1.956-2.607-5.506-3.115-8.188-1.304l-78.111 56.735c-2.608 1.957-3.116 5.652-1.305 8.188l10.58 14.71c1.956 2.607 5.65 3.115 8.188 1.304l78.111-56.735c2.608-1.957 3.115-5.652 1.305-8.188z" />
  <path
     style="fill:#800080"
     id="path855"
     stroke-width="param(outline-width)"
     stroke-opacity="param(outline-opacity)"
     stroke="param(outline)"
     fill-opacity="param(fill-opacity)"
     fill="param(fill)"
     d="m285.945 326.578l31.013 54.634 16.304-12.173-31.012-54.345z" />
  <path
     style="fill:#800080"
     id="path857"
     stroke-width="param(outline-width)"
     stroke-opacity="param(outline-opacity)"
     stroke="param(outline)"
     fill-opacity="param(fill-opacity)"
     fill="param(fill)"
     d="m260.947 242.09l-120.5-211.582-23.114.145 127.165 223.465z" />
  <path
     style="fill:#800080"
     id="path859"
     stroke-width="param(outline-width)"
     stroke-opacity="param(outline-opacity)"
     stroke="param(outline)"
     fill-opacity="param(fill-opacity)"
     fill="param(fill)"
     d="m509.846 345.417l-111.95-.146c-8.913 0-16.666 3.841-23.477 8.768l-86.662 60.939-59.562-58.91 82.966-60.721c12.898-10.797 14.564-29.999 3.841-42.896-10.941-12.753-29.999-14.419-42.896-3.695l-129.558 92.241c-18.839 15.868-22.245 51.663-6.521 70.503l93.618 93.69c0 0 25.506 33.259 67.532 2.971l119.269-84.198 93.4.146c21.81 0 39.346-17.536 39.346-39.346-.001-21.665-17.537-39.346-39.346-39.346z" />
</svg>
